<svg xmlns="http://www.w3.org/2000/svg" xmlns:xlink="http://www.w3.org/1999/xlink" viewBox="0 0 16 16"><defs><style>.cls-1{fill:#fff;}.cls-2,.cls-4{fill:gray;}.cls-2{opacity:0.5;}.cls-3{fill:#ff3232;}</style><symbol id="Coordinate_grid" data-name="Coordinate grid" viewBox="0 0 16 16"><rect class="cls-1" x="1" width="15" height="15"/><rect width="1" height="16"/><polygon points="0 16 0 15 16 15 16 16 0 16"/></symbol></defs><title>partial_dependence_plot</title><g id="Layer_2" data-name="Layer 2"><g id="partial_dependence_plot"><use width="16" height="16" xlink:href="#Coordinate_grid"/><g id="gray-stream"><path class="cls-2" d="M2,8S6.6,8,8.5,5.5C11.5,1.5,15,2,15,2V8.5s-3.5-1-6.5,3C6.6,14,2,12,2,12Z"/><path class="cls-3" d="M15,4.48c-2,0-6.14.52-7,3.9C7.56,10.2,4.07,10,2,9.68v1a15.53,15.53,0,0,0,2.48.21c1.94,0,4-.45,4.51-2.28C9.65,6,13.25,5.53,15,5.49Z"/><path class="cls-4" d="M15,1.49A9.17,9.17,0,0,0,8.1,5.2C6.84,6.89,3.63,7.34,2,7.46v1c1.76-.12,5.37-.61,6.9-2.66A8.17,8.17,0,0,1,15,2.49Z"/><path class="cls-4" d="M15,7.49A9.17,9.17,0,0,0,8.1,11.2c-1.16,1.55-4.29,1.09-6.1.59v1a13.37,13.37,0,0,0,3.19.45A4.43,4.43,0,0,0,8.9,11.8,8.17,8.17,0,0,1,15,8.49Z"/></g></g></g></svg>