<svg xmlns="http://www.w3.org/2000/svg" viewBox="0 0 16 16"><defs><style>.cls-1,.cls-2{fill:#fff;}.cls-1{opacity:0;}.cls-3{stroke:#000;stroke-miterlimit:10;}</style></defs><title>brat_document_viewer</title><g id="Layer_2" data-name="Layer 2"><g id="brat_document_viewer"><rect id="don_t_crop_me" data-name="don&apos;t crop me" class="cls-1" width="16" height="16"/><polygon class="cls-2" points="2.5 13.5 2.5 0.5 7.83 0.5 12.5 4.24 12.5 13.5 2.5 13.5"/><path d="M7.65,1,12,4.48V13H3V1H7.65M8,0H2V14H13V4L8,0Z"/><rect class="cls-2" x="4" y="6" width="6" height="1"/><polygon points="10 6 4 6 4 7 10 7 10 6 10 6"/><rect class="cls-2" x="4" y="8" width="6" height="1"/><polygon points="10 8 4 8 4 9 10 9 10 8 10 8"/><rect class="cls-2" x="4" y="10" width="4" height="1"/><polygon points="8 10 4 10 4 11 8 11 8 10 8 10"/><circle class="cls-2" cx="12" cy="12" r="2.5"/><path d="M12,10a2,2,0,1,1-2,2,2,2,0,0,1,2-2m0-1a3,3,0,1,0,3,3,3,3,0,0,0-3-3Z"/><polyline class="cls-3" points="8 1 8 4 12 4"/><polygon points="13.85 13.15 13.15 13.85 15.29 16 16 16 16 15.29 13.85 13.15"/></g></g></svg>